<svg width="50" height="50" viewBox="0 0 50 50" fill="none" xmlns="http://www.w3.org/2000/svg">
<path d="M38.6364 20.4545C39.8915 20.4545 40.9091 19.437 40.9091 18.1818C40.9091 16.9266 39.8915 15.9091 38.6364 15.9091C37.3812 15.9091 36.3636 16.9266 36.3636 18.1818C36.3636 19.437 37.3812 20.4545 38.6364 20.4545Z" fill="white"/>
<path d="M13.1318 10.2272C13.4114 10.2272 13.6364 10.0249 13.6364 9.77273V8.40908C13.6364 8.15908 13.4114 7.95459 13.1318 7.95459H9.59544C9.31594 7.95459 9.09094 8.15688 9.09094 8.40908V9.77273C9.09094 10.0227 9.31594 10.2272 9.59544 10.2272H13.1318Z" fill="white"/>
<path d="M26.1363 36.3637C31.7841 36.3637 36.3636 31.7841 36.3636 26.1364C36.3636 20.4886 31.7841 15.9091 26.1363 15.9091C20.4886 15.9091 15.9091 20.4886 15.9091 26.1364C15.9091 31.7841 20.4886 36.3637 26.1363 36.3637ZM26.1363 18.1819C30.5295 18.1819 34.0908 21.7432 34.0908 26.1364C34.0908 30.5295 30.5295 34.0909 26.1363 34.0909C21.7432 34.0909 18.1818 30.5295 18.1818 26.1364C18.1818 21.7432 21.7432 18.1819 26.1363 18.1819Z" fill="white"/>
<path d="M0 15.9091V38.6365C0 43.182 4.54543 43.182 4.54543 43.182H45.4545C45.4545 43.182 50 43.182 50 38.6365V15.9091C50 11.3637 45.4545 11.3637 45.4545 11.3637H36.8181L34.4045 7.34324C34.2318 7.05231 33.8136 6.81824 33.4864 6.81824H18.7864C18.4523 6.81824 18.0364 7.06146 17.8681 7.34324L15.4545 11.3637H4.54543C4.54543 11.3636 0 11.3636 0 15.9091ZM16.9864 13.6364L19.5181 9.09087H32.5364L35.4158 13.6364H45.4295C45.4295 13.6364 47.7272 13.6364 47.7272 15.95V38.5932C47.7272 40.9092 45.4295 40.9092 45.4295 40.9092H4.57043C4.57043 40.9092 2.27271 40.9092 2.27271 38.5932V15.95C2.27271 13.6364 4.57043 13.6364 4.57043 13.6364H16.9864V13.6364Z" fill="white"/>
</svg>
