<svg width="50" height="50" viewBox="0 0 50 50" fill="none" xmlns="http://www.w3.org/2000/svg">
<path d="M47.9605 9.47373L36.8421 16.6448V14.4737C36.8421 11.579 34.4737 9.21057 31.5789 9.21057H5.26316C2.36842 9.21057 0 11.579 0 14.4737V35.5264C0 38.4211 2.36842 40.7895 5.26316 40.7895H31.5789C34.4737 40.7895 36.8421 38.4211 36.8421 35.5264V33.3553L47.9605 40.5264C49.2105 41.1843 50 40.0658 50 39.4079V10.5264C50 9.86847 49.2763 8.68426 47.9605 9.47373ZM34.2105 35.5264C34.2105 36.9737 33.0263 38.1579 31.5789 38.1579H5.26316C3.81579 38.1579 2.63158 36.9737 2.63158 35.5264V14.4737C2.63158 13.0264 3.81579 11.8422 5.26316 11.8422H31.5789C33.0263 11.8422 34.2105 13.0264 34.2105 14.4737V35.5264ZM47.3684 37.0395L36.8421 30.2632V19.7369L47.3684 12.9606V37.0395Z" fill="white"/>
</svg>
