<svg width="47" height="40" viewBox="0 0 47 40" fill="none" xmlns="http://www.w3.org/2000/svg">
<g clip-path="url(#clip0_27_195)">
<path d="M42.4259 10.0848H3.29109C1.31438 10.0848 -0.282959 8.28783 -0.282959 6.09149C-0.282959 3.89515 1.31438 2.09814 3.29109 2.09814H42.4259C44.4026 2.09814 45.9999 3.89515 45.9999 6.09149C45.9999 8.28783 44.4026 10.0848 42.4259 10.0848Z" fill="white"/>
<path d="M42.4259 24.8802H3.29109C1.31438 24.8802 -0.282959 23.0832 -0.282959 20.8869C-0.282959 18.6906 1.31438 16.8936 3.29109 16.8936H42.4259C44.4026 16.8936 45.9999 18.6906 45.9999 20.8869C45.9999 23.0832 44.4026 24.8802 42.4259 24.8802Z" fill="white"/>
<path d="M42.4259 39.6754H3.29109C1.31438 39.6754 -0.282959 37.8784 -0.282959 35.6821C-0.282959 33.4857 1.31438 31.6887 3.29109 31.6887H42.4259C44.4026 31.6887 45.9999 33.4857 45.9999 35.6821C45.9999 37.8784 44.4026 39.6754 42.4259 39.6754Z" fill="white"/>
</g>
<defs>
<clipPath id="clip0_27_195">
<rect width="47" height="40" fill="white"/>
</clipPath>
</defs>
</svg>
