<svg width="30" height="50" viewBox="0 0 30 50" fill="none" xmlns="http://www.w3.org/2000/svg">
<path d="M18.5578 44.9127C18.5578 44.2198 18.4299 43.5633 18.1749 42.9437C17.9196 42.3235 17.5547 41.7858 17.0808 41.3297C16.6067 40.8738 16.0597 40.5091 15.4398 40.2359C14.8198 39.9621 14.1635 39.8254 13.4706 39.8254C12.7777 39.8254 12.1213 39.9621 11.5013 40.2359C10.8813 40.5094 10.3434 40.8741 9.88759 41.3297C9.43174 41.7858 9.07618 42.3234 8.8209 42.9437C8.56562 43.5636 8.43799 44.2198 8.43799 44.9127C8.43799 45.6056 8.56562 46.2622 8.8209 46.8819C9.07618 47.5021 9.43174 48.0398 9.88759 48.4957C10.3434 48.9518 10.8813 49.3164 11.5013 49.5897C12.1213 49.8635 12.7777 50 13.4706 50C14.1635 50 14.8199 49.8635 15.4398 49.5897C16.0599 49.3162 16.607 48.9515 17.0808 48.4957C17.5549 48.0398 17.9196 47.5022 18.1749 46.8819C18.4301 46.262 18.5578 45.6056 18.5578 44.9127ZM13.8534 37.5826H13.4158C12.2488 37.4367 11.2915 36.9079 10.5439 35.9962C9.79633 35.0848 9.47724 34.0452 9.58664 32.8782C9.80545 30.8726 10.3069 28.9305 11.091 27.0524C11.875 25.1742 12.887 23.5058 14.1269 22.0471C14.5281 21.5365 14.9656 21.0716 15.4397 20.6522C15.914 20.2328 16.3879 19.8225 16.8619 19.4214C18.0654 18.4003 18.9865 17.4886 19.6244 16.6863C20.2623 15.884 20.5817 14.8993 20.5817 13.7323C20.5817 12.7112 20.372 11.8725 19.9526 11.216C19.5335 10.5596 19.0228 10.0399 18.4209 9.65703C17.8191 9.27412 17.1901 9.00061 16.5337 8.8365C15.8773 8.6724 15.2938 8.59034 14.7833 8.59034H14.6739C13.6527 8.59034 12.814 8.7271 12.1576 9.00061C11.5011 9.27412 10.945 9.65703 10.4891 10.1494C10.0333 10.6417 9.65037 11.2343 9.34039 11.9272C9.03041 12.6201 8.71132 13.3677 8.3831 14.17C7.94549 15.3005 7.4167 16.0937 6.79674 16.5495C6.17678 17.0054 5.55683 17.2698 4.93687 17.3427C4.24398 17.4886 3.53285 17.4339 2.80348 17.1786C2.07412 16.8868 1.49063 16.4675 1.05302 15.9204C0.651867 15.4463 0.341888 14.8355 0.12308 14.0879C-0.0957287 13.3403 -0.0227927 12.4195 0.341888 11.3255C0.560697 10.6326 0.943612 9.6388 1.49063 8.34418C2.03766 7.04956 2.8673 5.7823 3.97958 4.54238C5.09186 3.30247 6.52323 2.22666 8.2737 1.31496C10.0242 0.403253 12.2123 -0.0343642 14.8379 0.00210393C16.5883 0.038572 18.3115 0.357668 20.0072 0.959392C21.703 1.56112 23.2255 2.44547 24.5749 3.61245C25.9244 4.77943 27.0182 6.2108 27.8572 7.90657C28.696 9.60233 29.1151 11.5443 29.1151 13.7323C29.1151 15.3369 28.8966 16.7592 28.4587 17.9991C28.0211 19.239 27.4649 20.3513 26.7903 21.3359C26.1156 22.3206 25.3863 23.1776 24.6023 23.9069C23.8182 24.6363 23.098 25.2927 22.4416 25.8763C22.0769 26.2045 21.7304 26.5054 21.4019 26.7789C21.0737 27.0527 20.8187 27.3171 20.6364 27.5721C19.98 28.3746 19.4238 29.3134 18.968 30.3895C18.5119 31.4653 18.2295 32.5867 18.1201 33.7537C18.0107 34.8842 17.5457 35.805 16.7254 36.5161C15.9046 37.227 14.9475 37.5826 13.8534 37.5826Z" fill="white"/>
</svg>
