<svg width="30" height="45" viewBox="0 0 30 45" fill="none" xmlns="http://www.w3.org/2000/svg">
<path d="M18.5578 39.8654C18.5578 39.263 18.4299 38.6923 18.1749 38.1536C17.9196 37.6145 17.5547 37.147 17.0808 36.7505C16.6067 36.3542 16.0597 36.0371 15.4398 35.7996C14.8198 35.5616 14.1635 35.4427 13.4706 35.4427C12.7777 35.4427 12.1213 35.5616 11.5013 35.7996C10.8813 36.0374 10.3434 36.3544 9.88759 36.7505C9.43174 37.147 9.07618 37.6144 8.8209 38.1536C8.56562 38.6926 8.43799 39.263 8.43799 39.8654C8.43799 40.4679 8.56562 41.0387 8.8209 41.5774C9.07618 42.1165 9.43174 42.584 9.88759 42.9804C10.3434 43.3769 10.8813 43.6939 11.5013 43.9315C12.1213 44.1695 12.7777 44.2881 13.4706 44.2881C14.1635 44.2881 14.8199 44.1695 15.4398 43.9315C16.0599 43.6937 16.607 43.3766 17.0808 42.9804C17.5549 42.584 17.9196 42.1166 18.1749 41.5774C18.4301 41.0384 18.5578 40.4678 18.5578 39.8654ZM13.8534 33.4929H13.4158C12.2488 33.366 11.2915 32.9063 10.5439 32.1137C9.79633 31.3214 9.47724 30.4176 9.58664 29.403C9.80545 27.6595 10.3069 25.9711 11.091 24.3383C11.875 22.7054 12.887 21.255 14.1269 19.9868C14.5281 19.543 14.9656 19.1387 15.4397 18.7741C15.914 18.4095 16.3879 18.0529 16.8619 17.7041C18.0654 16.8164 18.9865 16.0238 19.6244 15.3263C20.2623 14.6288 20.5817 13.7728 20.5817 12.7583C20.5817 11.8706 20.372 11.1414 19.9526 10.5707C19.5335 10 19.0228 9.54822 18.4209 9.21533C17.8191 8.88244 17.1901 8.64465 16.5337 8.50199C15.8773 8.35932 15.2938 8.28798 14.7833 8.28798H14.6739C13.6527 8.28798 12.814 8.40687 12.1576 8.64465C11.5011 8.88243 10.945 9.21533 10.4891 9.64333C10.0333 10.0713 9.65037 10.5865 9.34039 11.1889C9.03041 11.7913 8.71132 12.4412 8.3831 13.1387C7.94549 14.1215 7.4167 14.8111 6.79674 15.2074C6.17678 15.6037 5.55683 15.8336 4.93687 15.897C4.24398 16.0238 3.53285 15.9762 2.80348 15.7543C2.07412 15.5007 1.49063 15.1361 1.05302 14.6605C0.651867 14.2484 0.341888 13.7173 0.12308 13.0674C-0.0957287 12.4174 -0.0227927 11.6169 0.341888 10.6658C0.560697 10.0634 0.943612 9.19948 1.49063 8.07398C2.03766 6.94848 2.8673 5.84676 3.97958 4.76882C5.09186 3.69088 6.52323 2.75561 8.2737 1.963C10.0242 1.1704 12.2123 0.789949 14.8379 0.821653C16.5883 0.853357 18.3115 1.13077 20.0072 1.65389C21.703 2.17701 23.2255 2.94583 24.5749 3.96036C25.9244 4.9749 27.0182 6.21929 27.8572 7.69353C28.696 9.16777 29.1151 10.856 29.1151 12.7583C29.1151 14.1533 28.8966 15.3897 28.4587 16.4677C28.0211 17.5456 27.4649 18.5126 26.7903 19.3686C26.1156 20.2246 25.3863 20.9696 24.6023 21.6037C23.8182 22.2378 23.098 22.8085 22.4416 23.3158C22.0769 23.6012 21.7304 23.8627 21.4019 24.1005C21.0737 24.3385 20.8187 24.5684 20.6364 24.7901C19.98 25.4878 19.4238 26.3039 18.968 27.2395C18.5119 28.1747 18.2295 29.1496 18.1201 30.1642C18.0107 31.147 17.5457 31.9475 16.7254 32.5657C15.9046 33.1837 14.9475 33.4929 13.8534 33.4929Z" fill="white"/>
</svg>
