<svg width="1903" height="8573" viewBox="0 0 1903 8573" fill="none" xmlns="http://www.w3.org/2000/svg">
<g clip-path="url(#clip0_277_6)">
<rect width="1903" height="8573" fill="#111111"/>
<line x1="0.414568" y1="-2.46539" x2="1903.41" y2="317.535" stroke="#97EFD5" stroke-width="5"/>
<line x1="-61.5689" y1="447.537" x2="1903.43" y2="791.537" stroke="#97EFD5" stroke-width="5"/>
<line x1="0.144268" y1="447.504" x2="1903.14" y2="557.504" stroke="#FE3434" stroke-width="5"/>
<line x1="-0.346084" y1="1091.52" x2="1902.65" y2="825.524" stroke="#FE3434" stroke-width="5"/>
<line x1="0.414568" y1="1125.53" x2="1903.41" y2="1445.53" stroke="#97EFD5" stroke-width="5"/>
<line x1="-61.5689" y1="1575.54" x2="1903.43" y2="1919.54" stroke="#97EFD5" stroke-width="5"/>
<line x1="0.144268" y1="1575.5" x2="1903.14" y2="1685.5" stroke="#FE3434" stroke-width="5"/>
<line x1="-0.346084" y1="2219.52" x2="1902.65" y2="1953.52" stroke="#FE3434" stroke-width="5"/>
<line x1="-61.5689" y1="2901.54" x2="1903.43" y2="3245.54" stroke="black" stroke-opacity="0.7" stroke-width="5"/>
<line x1="-0.0472853" y1="2409.5" x2="1902.95" y2="2373.5" stroke="#97EFD5" stroke-width="5"/>
<line x1="0.144268" y1="2901.5" x2="1903.14" y2="3011.5" stroke="white" stroke-opacity="0.7" stroke-width="5"/>
<line x1="-0.346084" y1="3545.52" x2="1902.65" y2="3279.52" stroke="white" stroke-opacity="0.7" stroke-width="5"/>
<line x1="-61.5689" y1="2901.54" x2="1903.43" y2="3245.54" stroke="#FE3434" stroke-width="5"/>
<path d="M0.477539 3790.55L1920 4169" stroke="#FE3434" stroke-width="5"/>
<line x1="0.144268" y1="2901.5" x2="1903.14" y2="3011.5" stroke="#97EFD5" stroke-width="5"/>
<line x1="-0.346084" y1="3545.52" x2="1902.65" y2="3279.52" stroke="#97EFD5" stroke-width="5"/>
<path d="M-15.6094 3551.5L1903.39 3855.5" stroke="#FE3434" stroke-width="5"/>
<line y1="-2.5" x2="1934.71" y2="-2.5" transform="matrix(0.983609 0.180317 -0.152442 0.988312 0 4072)" stroke="#97EFD5" stroke-width="5"/>
<line y1="-2.5" x2="2000.47" y2="-2.5" transform="matrix(0.982271 0.187469 -0.15855 0.987351 -62 4562.59)" stroke="#97EFD5" stroke-width="5"/>
<line y1="-2.5" x2="1906.77" y2="-2.5" transform="matrix(0.99802 0.062892 -0.0529471 0.998597 0 4562.59)" stroke="#FE3434" stroke-width="5"/>
<line y1="-2.5" x2="1924.97" y2="-2.5" transform="matrix(0.988588 -0.150647 0.127175 0.99188 0 5264.67)" stroke="#FE3434" stroke-width="5"/>
<line y1="-2.5" x2="1934.71" y2="-2.5" transform="matrix(0.983609 0.180317 -0.152442 0.988312 0 5301.73)" stroke="#97EFD5" stroke-width="5"/>
<line y1="-2.5" x2="2000.47" y2="-2.5" transform="matrix(0.982271 0.187469 -0.15855 0.987351 -62 5792.32)" stroke="#97EFD5" stroke-width="5"/>
<line y1="-2.5" x2="1906.77" y2="-2.5" transform="matrix(0.99802 0.062892 -0.0529471 0.998597 0 5792.32)" stroke="#FE3434" stroke-width="5"/>
<line y1="-2.5" x2="1924.97" y2="-2.5" transform="matrix(0.988588 -0.150647 0.127175 0.99188 0 6494.4)" stroke="#FE3434" stroke-width="5"/>
<line y1="-2.5" x2="2000.47" y2="-2.5" transform="matrix(0.982271 0.187469 -0.15855 0.987351 -62 7237.91)" stroke="black" stroke-opacity="0.7" stroke-width="5"/>
<line y1="-2.5" x2="1903.4" y2="-2.5" transform="matrix(0.999787 -0.0206193 0.0173499 0.999849 0 6701.54)" stroke="#97EFD5" stroke-width="5"/>
<line y1="-2.5" x2="1906.77" y2="-2.5" transform="matrix(0.99802 0.062892 -0.0529471 0.998597 0 7237.91)" stroke="white" stroke-opacity="0.7" stroke-width="5"/>
<line y1="-2.5" x2="1924.97" y2="-2.5" transform="matrix(0.988588 -0.150647 0.127175 0.99188 0 7939.99)" stroke="white" stroke-opacity="0.7" stroke-width="5"/>
<line y1="-2.5" x2="2000.47" y2="-2.5" transform="matrix(0.982271 0.187469 -0.15855 0.987351 -62 7237.91)" stroke="#FE3434" stroke-width="5"/>
<path d="M0.477539 8204.41L1920 8617" stroke="#FE3434" stroke-width="5"/>
<line y1="-2.5" x2="1906.77" y2="-2.5" transform="matrix(0.99802 0.062892 -0.0529471 0.998597 0 7237.91)" stroke="#97EFD5" stroke-width="5"/>
<line y1="-2.5" x2="1924.97" y2="-2.5" transform="matrix(0.988588 -0.150647 0.127175 0.99188 0 7939.99)" stroke="#97EFD5" stroke-width="5"/>
<path d="M-15.6094 7943.81L1903.39 8275.23" stroke="#FE3434" stroke-width="5"/>
</g>
<defs>
<clipPath id="clip0_277_6">
<rect width="1903" height="8573" fill="white"/>
</clipPath>
</defs>
</svg>
